# xmcd
#
# Track frame offsets:
#       150
#       17551
#       32627
#       48978
#       63904
#       79055
#       94956
#       111982
#       128258
#       148509
#
# Disc length: 2152 seconds
#
# Revision: 0
# Processed by: cddbd v1.4PL0 Copyright (c) Steve Scherf et al.
# Submitted via: CD-DA_X-Tractor v0.21
#
DISCID=7908660a
DTITLE=Joe Orsak - By Grace You Saved Me
DYEAR=1900
DGENRE=
TTITLE0=It's Your Love Lord
TTITLE1=Master Builder
TTITLE2=I Know You Are Real
TTITLE3=Everlasting Adonai
TTITLE4=Born Again
TTITLE5=By Grace You Saved Me
TTITLE6=He Loves You
TTITLE7=For The Moment
TTITLE8=Walkin' In Your Will
TTITLE9=Lead Me Lord
EXTD=
EXTT0=
EXTT1=
EXTT2=
EXTT3=
EXTT4=
EXTT5=
EXTT6=
EXTT7=
EXTT8=
EXTT9=
PLAYORDER=
